<svg width="200" height="200" viewBox="0 0 200 200" fill="none" xmlns="http://www.w3.org/2000/svg">
<g clip-path="url(#clip0_1_2)">
<path d="M68.75 65L61.0417 48.5417L44.5833 40.8333L61.0417 33.125L68.75 16.6667L76.4583 33.125L92.9167 40.8333L76.4583 48.5417L68.75 65ZM125 90.2083L118.542 76.4583L104.792 70L118.542 63.5417L125 49.7917L131.458 63.5417L145.208 70L131.458 76.4583L125 90.2083ZM28.5417 106.875L22.0833 93.125L8.33333 86.6667L22.0833 80.2083L28.5417 66.4583L35 80.2083L48.75 86.6667L35 93.125L28.5417 106.875ZM34.5833 170.833L25 161.25L87.5 98.75L120.833 132.292L182.917 62.7083L191.667 71.25L120.833 151.042L87.5 117.917L34.5833 170.833Z" fill="url(#paint0_linear_1_2)"/>
</g>
<defs>
<linearGradient id="paint0_linear_1_2" x1="100" y1="16.6667" x2="100" y2="170.833" gradientUnits="userSpaceOnUse">
<stop stop-color="#FFBE0B"/>
<stop offset="0.244792" stop-color="#FB5607"/>
<stop offset="0.536458" stop-color="#FF006E"/>
<stop offset="0.739583" stop-color="#8338EC"/>
<stop offset="0.963542" stop-color="#3A86FF"/>
</linearGradient>
<clipPath id="clip0_1_2">
<rect width="200" height="200" fill="white"/>
</clipPath>
</defs>
</svg>
